<?xml version="1.0" encoding="UTF-8"?>
<svg xmlns="http://www.w3.org/2000/svg" xmlns:xlink="http://www.w3.org/1999/xlink" width="70pt" height="50pt" viewBox="0 0 70 50" version="1.1">
<g id="surface1">
<path style=" stroke:none;fill-rule:nonzero;fill:rgb(38.039216%,85.490196%,98.431373%);fill-opacity:1;" d="M 55.386719 24.902344 C 55.386719 22.171875 52.003906 19.585938 46.820312 17.984375 C 48.015625 12.640625 47.484375 8.390625 45.140625 7.03125 C 44.601562 6.710938 43.96875 6.558594 43.28125 6.558594 L 43.28125 8.433594 C 43.664062 8.433594 43.96875 8.507812 44.226562 8.652344 C 45.359375 9.304688 45.847656 11.800781 45.464844 15.007812 C 45.375 15.796875 45.226562 16.628906 45.042969 17.480469 C 43.414062 17.074219 41.636719 16.765625 39.765625 16.5625 C 38.644531 15.007812 37.480469 13.597656 36.308594 12.363281 C 39.015625 9.820312 41.558594 8.425781 43.289062 8.425781 L 43.289062 6.550781 C 41.003906 6.550781 38.011719 8.199219 34.988281 11.054688 C 31.964844 8.214844 28.972656 6.585938 26.6875 6.585938 L 26.6875 8.457031 C 28.40625 8.457031 30.957031 9.84375 33.667969 12.371094 C 32.503906 13.605469 31.339844 15.007812 30.234375 16.5625 C 28.355469 16.765625 26.578125 17.074219 24.949219 17.488281 C 24.757812 16.648438 24.617188 15.832031 24.519531 15.050781 C 24.128906 11.84375 24.609375 9.347656 25.730469 8.683594 C 25.980469 8.535156 26.304688 8.464844 26.6875 8.464844 L 26.6875 6.59375 C 25.988281 6.59375 25.355469 6.746094 24.808594 7.0625 C 22.472656 8.425781 21.949219 12.664062 23.15625 17.992188 C 17.988281 19.605469 14.621094 22.183594 14.621094 24.902344 C 14.621094 27.632812 18.003906 30.21875 23.1875 31.824219 C 21.992188 37.167969 22.523438 41.417969 24.867188 42.777344 C 25.40625 43.097656 26.039062 43.246094 26.738281 43.246094 C 29.019531 43.246094 32.011719 41.601562 35.039062 38.746094 C 38.0625 41.585938 41.054688 43.214844 43.339844 43.214844 C 44.035156 43.214844 44.667969 43.0625 45.214844 42.742188 C 47.550781 41.382812 48.074219 37.140625 46.871094 31.816406 C 52.023438 30.210938 55.386719 27.625 55.386719 24.902344 Z M 44.566406 19.300781 C 44.261719 20.382812 43.878906 21.5 43.445312 22.617188 C 43.105469 21.945312 42.75 21.273438 42.359375 20.601562 C 41.976562 19.929688 41.570312 19.277344 41.160156 18.636719 C 42.339844 18.8125 43.480469 19.03125 44.566406 19.300781 Z M 40.761719 28.246094 C 40.113281 29.378906 39.449219 30.457031 38.761719 31.453125 C 37.523438 31.5625 36.265625 31.621094 35.003906 31.621094 C 33.75 31.621094 32.496094 31.5625 31.265625 31.464844 C 30.574219 30.464844 29.902344 29.398438 29.253906 28.269531 C 28.621094 27.171875 28.050781 26.054688 27.527344 24.929688 C 28.039062 23.804688 28.621094 22.675781 29.246094 21.578125 C 29.894531 20.445312 30.558594 19.367188 31.25 18.367188 C 32.488281 18.257812 33.742188 18.199219 35.003906 18.199219 C 36.257812 18.199219 37.511719 18.257812 38.742188 18.359375 C 39.433594 19.359375 40.105469 20.425781 40.753906 21.550781 C 41.386719 22.652344 41.960938 23.769531 42.484375 24.894531 C 41.960938 26.019531 41.386719 27.144531 40.761719 28.246094 Z M 43.445312 27.15625 C 43.894531 28.28125 44.277344 29.40625 44.59375 30.496094 C 43.503906 30.765625 42.359375 30.992188 41.167969 31.167969 C 41.578125 30.523438 41.984375 29.859375 42.367188 29.179688 C 42.75 28.507812 43.105469 27.828125 43.445312 27.15625 Z M 35.019531 36.117188 C 34.246094 35.308594 33.476562 34.410156 32.710938 33.429688 C 33.457031 33.460938 34.222656 33.488281 34.996094 33.488281 C 35.777344 33.488281 36.550781 33.46875 37.304688 33.429688 C 36.558594 34.410156 35.785156 35.308594 35.019531 36.117188 Z M 28.839844 31.167969 C 27.660156 30.992188 26.519531 30.773438 25.433594 30.503906 C 25.738281 29.421875 26.121094 28.304688 26.554688 27.1875 C 26.894531 27.859375 27.25 28.53125 27.640625 29.203125 C 28.03125 29.875 28.429688 30.53125 28.839844 31.167969 Z M 34.980469 13.691406 C 35.753906 14.496094 36.523438 15.394531 37.289062 16.378906 C 36.542969 16.34375 35.777344 16.320312 35.003906 16.320312 C 34.222656 16.320312 33.449219 16.335938 32.695312 16.378906 C 33.441406 15.394531 34.214844 14.496094 34.980469 13.691406 Z M 28.832031 18.636719 C 28.421875 19.285156 28.015625 19.949219 27.632812 20.628906 C 27.25 21.300781 26.894531 21.972656 26.554688 22.644531 C 26.105469 21.519531 25.722656 20.394531 25.40625 19.300781 C 26.496094 19.039062 27.640625 18.8125 28.832031 18.636719 Z M 21.308594 29.152344 C 18.367188 27.886719 16.464844 26.222656 16.464844 24.902344 C 16.464844 23.585938 18.367188 21.914062 21.308594 20.652344 C 22.023438 20.34375 22.804688 20.066406 23.613281 19.804688 C 24.085938 21.453125 24.707031 23.164062 25.480469 24.921875 C 24.71875 26.667969 24.101562 28.371094 23.636719 30.011719 C 22.8125 29.75 22.035156 29.464844 21.308594 29.152344 Z M 25.78125 41.15625 C 24.652344 40.5 24.160156 38.007812 24.542969 34.796875 C 24.632812 34.007812 24.785156 33.175781 24.964844 32.328125 C 26.59375 32.730469 28.375 33.042969 30.242188 33.242188 C 31.363281 34.796875 32.527344 36.207031 33.699219 37.441406 C 30.992188 39.988281 28.449219 41.382812 26.71875 41.382812 C 26.347656 41.375 26.03125 41.296875 25.78125 41.15625 Z M 45.492188 34.753906 C 45.882812 37.964844 45.398438 40.457031 44.277344 41.121094 C 44.027344 41.273438 43.703125 41.339844 43.320312 41.339844 C 41.601562 41.339844 39.050781 39.953125 36.34375 37.425781 C 37.503906 36.191406 38.667969 34.789062 39.773438 33.234375 C 41.652344 33.035156 43.429688 32.722656 45.058594 32.3125 C 45.25 33.160156 45.398438 33.972656 45.492188 34.753906 Z M 48.691406 29.152344 C 47.976562 29.464844 47.195312 29.742188 46.386719 30 C 45.914062 28.355469 45.292969 26.640625 44.519531 24.886719 C 45.28125 23.140625 45.898438 21.433594 46.363281 19.796875 C 47.1875 20.058594 47.964844 20.34375 48.699219 20.652344 C 51.640625 21.921875 53.542969 23.585938 53.542969 24.902344 C 53.535156 26.222656 51.632812 27.894531 48.691406 29.152344 Z M 48.691406 29.152344 "/>
<path style=" stroke:none;fill-rule:nonzero;fill:rgb(38.039216%,85.490196%,98.431373%);fill-opacity:1;" d="M 38.792969 24.902344 C 38.792969 27.023438 37.09375 28.742188 34.996094 28.742188 C 32.898438 28.742188 31.199219 27.023438 31.199219 24.902344 C 31.199219 22.785156 32.898438 21.066406 34.996094 21.066406 C 37.09375 21.066406 38.792969 22.785156 38.792969 24.902344 Z M 38.792969 24.902344 "/>
</g>
</svg>
